<svg id="Logo" xmlns="http://www.w3.org/2000/svg" viewBox="0 0 60 19.52"><defs><style>.cls-1{fill:#22bcb9;}</style></defs><title>Orderista_xs</title><g id="Logo-2" data-name="Logo"><g id="Logo-3" data-name="Logo"><path id="Opath" class="cls-1" d="M578.14,500.42a4.79,4.79,0,0,0-2.61,2.22,7.07,7.07,0,0,1,4.83-1.92,6.75,6.75,0,0,1,2.15.34l0.13,0a0.65,0.65,0,0,0,.13,0l0,0,0.19-.16,0.34-.28a7.39,7.39,0,0,0-5.08-.29l-0.12,0M585.52,516h0m3.46-8.49a8.68,8.68,0,0,0-1.43-3.5l-0.62.74a1.65,1.65,0,0,0,.12.24l0.14,0.32c0.08,0.21.16,0.43,0.22,0.64a6.45,6.45,0,0,1,.25,1.34,7,7,0,0,1-.31,2.67,6.71,6.71,0,0,1-1.23,2.24,7.26,7.26,0,0,1-3.77,2.39,7.86,7.86,0,0,1-2.51.26,8.63,8.63,0,0,1-2.64-.62,9,9,0,0,1-4-3.16,7.89,7.89,0,0,1-1.42-5,7.08,7.08,0,0,1,2.15-4.54,10.34,10.34,0,0,1,4.6-2.56l0.1,0a9.73,9.73,0,0,0-2.6.44,8.39,8.39,0,0,0-2.38,1.22,8.89,8.89,0,0,0-3.07,3.94,8.68,8.68,0,0,0-.57,2.53,9.65,9.65,0,0,0,.2,2.71,10,10,0,0,0,2.38,4.57,10.67,10.67,0,0,0,4.27,2.83,10.07,10.07,0,0,0,2.63.58,9,9,0,0,0,2.59-.19,9.28,9.28,0,0,0,2.26-.79,9.4,9.4,0,0,0,1.6-1,8.53,8.53,0,0,0,2.83-4.27,8.91,8.91,0,0,0,.22-3.9" transform="translate(-570 -498.24)"/><path id="tickFork" class="cls-1" d="M588.92,500.88l-3,2.53,2.53-3c0.66-.79.56-0.9-0.24-0.24l-3,2.53,2.53-3c0.66-.79.56-0.9-0.24-0.24l-3,2.53,2.53-3c0.66-.79.56-0.9-0.24-0.24l-3.63,3a2.42,2.42,0,0,0-1,1.5c-0.16.8,0.13,1.53-.8,2.54l-3.86,3.58c-1.08-1.17-4-2-4-2s2.07,0.75,4,4.11l4.67-4.88c1-.95,1.75-0.65,2.56-0.82a2.42,2.42,0,0,0,1.5-1l3-3.63C589.82,500.32,589.71,500.22,588.92,500.88Z" transform="translate(-570 -498.24)"/></g><g id="Orderista"><path class="cls-1" d="M597.23,508.52a3.3,3.3,0,1,1-3.3-3.17A3.23,3.23,0,0,1,597.23,508.52Zm-1.28,0a2,2,0,1,0-2,2A2,2,0,0,0,595.95,508.52Z" transform="translate(-570 -498.24)"/><path class="cls-1" d="M599.13,507.5a1.81,1.81,0,0,1,1.5-.76,0.93,0.93,0,0,1,.3.05v1.33a3.5,3.5,0,0,0-.59-0.07,1.15,1.15,0,0,0-1.21,1.25v2.31H597.9v-4.78h1.23v0.67Z" transform="translate(-570 -498.24)"/><path class="cls-1" d="M606.17,505v6.63h-1.23v-0.29a2.8,2.8,0,0,1-1.39.37,2.47,2.47,0,0,1,0-4.94,2.89,2.89,0,0,1,1.39.36V505h1.23Zm-1.23,5.19v-1.92a1.81,1.81,0,0,0-1.17-.4,1.37,1.37,0,0,0-1.43,1.37,1.34,1.34,0,0,0,1.43,1.36A1.79,1.79,0,0,0,604.94,510.17Z" transform="translate(-570 -498.24)"/><path class="cls-1" d="M608,509.57a1.32,1.32,0,0,0,1.36,1.06,1.53,1.53,0,0,0,1.23-.59l0.78,0.65a2.63,2.63,0,0,1-2.16,1,2.47,2.47,0,0,1,0-4.94,2.29,2.29,0,0,1,2.32,2.55c0,0.1,0,.19,0,0.27H608Zm0-.78h2.37a1.05,1.05,0,0,0-1.15-1.06A1.25,1.25,0,0,0,608,508.79Z" transform="translate(-570 -498.24)"/><path class="cls-1" d="M613.41,507.5a1.81,1.81,0,0,1,1.5-.76,0.93,0.93,0,0,1,.3.05v1.33a3.5,3.5,0,0,0-.59-0.07,1.15,1.15,0,0,0-1.21,1.25v2.31h-1.23v-4.78h1.23v0.67Z" transform="translate(-570 -498.24)"/><path class="cls-1" d="M615.52,505.6a0.72,0.72,0,0,1,.7-0.72,0.71,0.71,0,0,1,.7.72,0.7,0.7,0,0,1-.7.71A0.71,0.71,0,0,1,615.52,505.6Zm0.1,1.23h1.22v4.78h-1.22v-4.78Z" transform="translate(-570 -498.24)"/><path class="cls-1" d="M617.89,510.32a3.81,3.81,0,0,0,1.64.39c0.56,0,.78-0.21.78-0.46s-0.27-.4-1-0.55c-1-.23-1.78-0.56-1.78-1.49a1.58,1.58,0,0,1,1.82-1.46,4.8,4.8,0,0,1,1.87.39l-0.4.9a4.45,4.45,0,0,0-1.49-.31c-0.47,0-.7.17-0.7,0.42s0.29,0.39,1.06.55c1.11,0.23,1.75.62,1.75,1.49s-0.7,1.5-1.92,1.5a4.2,4.2,0,0,1-2.07-.46Z" transform="translate(-570 -498.24)"/><path class="cls-1" d="M623.46,507.85v1.69c0,0.85.14,1.1,0.76,1.1a5,5,0,0,0,.56,0v0.92a3,3,0,0,1-1.11.18,1.37,1.37,0,0,1-1.44-1.5v-2.33h-0.68v-1h0.68V505h1.23v1.86h1.34v1h-1.34Z" transform="translate(-570 -498.24)"/><path class="cls-1" d="M630,506.83v4.78h-1.22v-0.35a2.5,2.5,0,0,1-1.4.42,2.47,2.47,0,0,1,0-4.94,2.81,2.81,0,0,1,1.4.4v-0.3H630Zm-1.22,1.43a1.83,1.83,0,0,0-1.18-.41,1.37,1.37,0,1,0,0,2.74,1.8,1.8,0,0,0,1.18-.4v-1.92Z" transform="translate(-570 -498.24)"/></g></g></svg>